HIERARCHY
ROOT Hips
{
    OFFSET 0.0 0.0 0.0
    CHANNELS 6 Xposition Yposition Zposition Zrotation Xrotation Yrotation
    JOINT Spine
    {
        OFFSET 0.0 5.0 0.0
        CHANNELS 3 Zrotation Xrotation Yrotation
        JOINT Chest
        {
            OFFSET 0.0 5.0 0.0
            CHANNELS 3 Zrotation Xrotation Yrotation
            JOINT Neck
            {
                OFFSET 0.0 8.0 0.0
                CHANNELS 3 Zrotation Xrotation Yrotation
                JOINT Head
                {
                    OFFSET 0.0 5.0 0.0
                    CHANNELS 3 Zrotation Xrotation Yrotation
                    End Site
                    {
                        OFFSET 0.0 3.0 0.0
                    }
                }
            }
            JOINT LeftShoulder
            {
                OFFSET -5.0 0.0 0.0
                CHANNELS 3 Zrotation Xrotation Yrotation
                JOINT LeftArm
                {
                    OFFSET 0.0 -10.0 0.0
                    CHANNELS 3 Zrotation Xrotation Yrotation
                    JOINT LeftForeArm
                    {
                        OFFSET 0.0 -10.0 0.0
                        CHANNELS 3 Zrotation Xrotation Yrotation
                        End Site
                        {
                            OFFSET 0.0 -3.0 0.0
                        }
                    }
                }
            }
            JOINT RightShoulder
            {
                OFFSET 5.0 0.0 0.0
                CHANNELS 3 Zrotation Xrotation Yrotation
                JOINT RightArm
                {
                    OFFSET 0.0 -10.0 0.0
                    CHANNELS 3 Zrotation Xrotation Yrotation
                    JOINT RightForeArm
                    {
                        OFFSET 0.0 -10.0 0.0
                        CHANNELS 3 Zrotation Xrotation Yrotation
                        End Site
                        {
                            OFFSET 0.0 -3.0 0.0
                        }
                    }
                }
            }
        }
    }
    JOINT LeftHip
    {
        OFFSET -2.0 0.0 0.0
        CHANNELS 3 Zrotation Xrotation Yrotation
        JOINT LeftKnee
        {
            OFFSET 0.0 -10.0 0.0
            CHANNELS 3 Zrotation Xrotation Yrotation
            JOINT LeftAnkle
            {
                OFFSET 0.0 -10.0 0.0
                CHANNELS 3 Zrotation Xrotation Yrotation
                End Site
                {
                    OFFSET 0.0 -3.0 0.0
                }
            }
        }
    }
    JOINT RightHip
    {
        OFFSET 2.0 0.0 0.0
        CHANNELS 3 Zrotation Xrotation Yrotation
        JOINT RightKnee
        {
            OFFSET 0.0 -10.0 0.0
            CHANNELS 3 Zrotation Xrotation Yrotation
            JOINT RightAnkle
            {
                OFFSET 0.0 -10.0 0.0
                CHANNELS 3 Zrotation Xrotation Yrotation
                End Site
                {
                    OFFSET 0.0 -3.0 0.0
                }
            }
        }
    }
}

MOTION
Frames: 9
Frame Time: 0.033333
0.000000 0.000000 5.000000 0.000000 0.000000 0.000000 0.000000 2.500000 0.000000 0.596008 1.483157 0.265968 0.778837 0.955336 0.338785 0.564642 0.450224 0.234998 0.000000 15.000000 0.000000 8.940120 22.247349 3.989523 23.365101 28.660095 10.163565 -0.000000 -0.000000 0.000000 8.940120 3.362358 -3.989523 23.365101 8.865606 -10.163565 0.000000 10.000000 0.000000 7.946773 19.775422 3.546242 11.682550 14.330047 5.081782 -0.000000 -0.000000 0.000000 7.946773 2.988763 -3.546242 11.682550 4.432803 -5.081782
0.314108 0.000000 4.999112 0.000000 0.000000 0.000000 0.626666 2.488905 0.281072 0.959813 1.455479 0.422368 1.003574 0.923286 0.425576 0.663632 0.427759 0.265779 3.759997 14.933429 1.686432 14.397195 21.832189 6.335522 30.107233 27.698573 12.767284 3.759997 1.411625 -1.686432 14.397195 5.441096 -6.335522 30.107233 11.523413 -12.767284 2.506665 9.955620 1.124288 12.797507 19.406390 5.631575 15.053616 13.849286 6.383642 2.506665 0.941083 -1.124288 12.797507 4.836530 -5.631575 15.053616 5.761707 -6.383642
0.627905 0.000000 4.996447 0.000000 0.000000 0.000000 1.243449 2.455718 0.552187 1.308481 1.414883 0.563806 1.212485 0.883040 0.497291 0.752156 0.401497 0.287145 7.460697 14.734309 3.313121 19.627219 21.223244 8.457083 36.374556 26.491197 14.918717 7.460697 2.810720 -3.313121 19.627219 7.471539 -8.457083 36.374556 14.078938 -14.918717 4.973798 9.822873 2.208747 17.446417 18.865106 7.517407 18.187278 13.245598 7.459358 4.973798 1.873813 -2.208747 17.446417 6.641368 -7.517407 18.187278 7.039469 -7.459358
0.941083 0.000000 4.992008 0.000000 0.000000 0.000000 1.840623 2.400734 0.803740 1.636514 1.361728 0.685270 1.402274 0.834956 0.551388 0.828818 0.371671 0.298338 11.043737 14.404405 4.822441 24.547709 20.425921 10.279047 42.068231 25.048683 16.541646 11.043737 4.184867 -4.822441 24.547709 9.435664 -10.279047 42.068231 16.509497 -16.541646 7.362491 9.602937 3.214961 21.820186 18.156374 9.136930 21.034116 12.524341 8.270823 7.362491 2.789911 -3.214961 21.820186 8.387257 -9.136930 21.034116 8.254749 -8.270823
1.253332 0.000000 4.985795 0.000000 0.000000 0.000000 2.408768 2.324441 1.026821 1.938738 1.296486 0.782458 1.569949 0.779461 0.585953 0.892408 0.338547 0.298963 14.452610 13.946647 6.160924 29.081067 19.447296 11.736870 47.098465 23.383835 17.578580 14.452610 5.521868 -6.160924 29.081067 11.316037 -11.736870 47.098465 18.793517 -17.578580 9.635073 9.297765 4.107283 25.849837 17.286485 10.432773 23.549232 11.691917 8.789290 9.635073 3.681246 -4.107283 25.849837 10.058699 -10.432773 23.549232 9.396758 -8.789290
1.564345 0.000000 4.977810 0.000000 0.000000 0.000000 2.938926 2.227516 1.213525 2.210387 1.219737 0.851927 1.712864 0.717048 0.599759 0.941925 0.302417 0.288996 17.633558 13.365098 7.281153 33.155800 18.296055 12.778909 51.385928 21.511430 17.992783 17.633558 6.809857 -7.281153 33.155800 13.095968 -12.778909 51.385928 20.910724 -17.992783 11.755705 8.910065 4.854102 29.471822 16.263160 11.359030 25.692964 10.755715 8.996392 11.755705 4.539905 -4.854102 29.471822 11.640861 -11.359030 25.692964 10.455362 -8.996392
1.873813 0.000000 4.968057 0.000000 0.000000 0.000000 3.422736 2.110820 1.357241 2.447176 1.132161 0.891217 1.828767 0.648270 0.592319 0.976588 0.263603 0.268792 20.536413 12.664919 8.143443 36.707645 16.982417 13.368249 54.863004 19.448089 17.769583 20.536413 8.037402 -8.143443 36.707645 14.759659 -13.368249 54.863004 22.842326 -17.769583 13.690942 8.443279 5.428962 32.629018 15.095482 11.882888 27.431502 9.724044 8.884792 13.690942 5.358268 -5.428962 32.629018 13.119697 -11.882888 27.431502 11.421163 -8.884792
2.181432 0.000000 4.956538 0.000000 0.000000 0.000000 3.852566 1.975388 1.452875 2.645373 1.034536 0.898934 1.915829 0.573737 0.563896 0.995849 0.222450 0.239066 23.115397 11.852325 8.717248 39.680589 15.518042 13.484012 57.474857 17.212125 16.916887 23.115397 9.193606 -8.717248 39.680589 16.292341 -13.484012 57.474857 24.571177 -16.916887 15.410265 7.901550 5.811499 35.271635 13.793815 11.985789 28.737429 8.606062 8.458443 15.410265 6.129071 -5.811499 35.271635 14.482081 -11.985789 28.737429 12.285589 -8.458443
2.486899 0.000000 4.943259 0.000000 0.000000 0.000000 4.221640 1.822422 1.497040 2.801850 0.927728 0.874806 1.972677 0.494113 0.515497 0.999404 0.179322 0.200871 25.329838 10.934529 8.982241 42.027747 13.915927 13.122097 59.180298 14.823385 15.464902 25.329838 10.268207 -8.982241 42.027747 17.680412 -13.122097 59.180298 26.081934 -15.464902 16.886559 7.289686 5.988160 37.357997 12.369713 11.664087 29.590149 7.411692 7.732451 16.886559 6.845471 -5.988160 37.357997 15.715922 -11.664087 29.590149 13.040967 -7.732451
